Coordinates
version=1
nRows=40
nColumns=38
inDegrees=no

Units are S.I. units (second, meters, Newtons, ...)
If the header above contains a line with 'inDegrees', this indicates whether rotational values are in degrees (yes) or radians (no).

endheader
time	pelvis_tilt	pelvis_list	pelvis_rotation	pelvis_tx	pelvis_ty	pelvis_tz	hip_flexion_r	hip_adduction_r	hip_rotation_r	knee_angle_r	ankle_angle_r	subtalar_angle_r	mtp_angle_r	hip_flexion_l	hip_adduction_l	hip_rotation_l	knee_angle_l	ankle_angle_l	subtalar_angle_l	mtp_angle_l	lumbar_extension	lumbar_bending	lumbar_rotation	arm_flex_r	arm_add_r	arm_rot_r	elbow_flex_r	pro_sup_r	wrist_flex_r	wrist_dev_r	arm_flex_l	arm_add_l	arm_rot_l	elbow_flex_l	pro_sup_l	wrist_flex_l	wrist_dev_l
4.44	-0.485326	1.53374	-1.1332	0.838558	0.0647942	0.888824	-0.343408	-0.00227808	0.0147265	0.129625	0.298548	0	0	0.394704	-0.240411	0.139287	0.0424613	-0.002854	0	0	-0.179335	-0.00856452	-0.0360678	-0.161717	-0.43895	0.38449	1.79558	1.5708	0	0	-0.252947	-0.2413	0.283111	0.626423	1.15131	0	0
4.45	-0.378412	1.53219	-1.25427	0.841853	0.0552001	0.887747	-0.351249	-0.0174931	0.0148281	0.139742	0.304483	0	0	0.396395	-0.230832	0.0533239	0.0671125	0.0251514	0	0	-0.177875	-0.0131409	-0.0426759	-0.218449	-0.388682	0.304367	1.81244	1.5708	0	0	-0.252444	-0.23998	0.279081	0.615033	1.1545	0	0
4.46	-0.526351	1.53596	-1.11665	0.844202	0.0472115	0.886075	-0.344437	-0.0216561	0.0203374	0.157305	0.309939	0	0	0.39411	-0.251983	0.121155	0.0819024	0.00118479	0	0	-0.16919	-0.0104727	-0.0560347	-0.197215	-0.461186	0.406156	1.83218	1.5708	0	0	-0.251645	-0.237151	0.256167	0.60004	1.19522	0	0
4.47	-0.460428	1.53282	-1.19833	0.847944	0.0372654	0.884855	-0.350177	-0.0359051	0.0227709	0.173017	0.315034	0	0	0.411123	-0.246865	-0.00895674	0.148038	0.0450265	0	0	-0.169169	-0.00903805	-0.0583696	-0.242376	-0.455743	0.217798	1.90642	0.130576	0	0	-0.249981	-0.233551	0.250735	0.590755	1.20552	0	0
4.48	-0.413638	1.53466	-1.25618	0.851553	0.0280054	0.883855	-0.347498	-0.0488835	0.0224711	0.193263	0.317361	0	0	0.425837	-0.246236	-0.0713916	0.203861	0.0556337	0	0	-0.164124	-0.0112234	-0.0692428	-0.264842	-0.467346	0.218623	1.92413	0.124368	0	0	-0.250424	-0.231773	0.239683	0.583271	1.21739	0	0
4.49	-0.389676	1.53463	-1.29188	0.855015	0.0184675	0.883022	-0.346057	-0.0601187	0.0245554	0.213421	0.31631	0	0	0.42295	-0.25023	-0.102218	0.224926	0.0471984	0	0	-0.160086	-0.0118126	-0.0791339	-0.289883	-0.479907	0.226122	1.94883	0.252693	0	0	-0.252419	-0.232407	0.237352	0.581174	1.21019	0	0
4.5	-0.326949	1.53581	-1.36468	0.858871	0.00894046	0.882368	-0.342315	-0.0727092	0.0249545	0.236469	0.313795	0	0	0.419457	-0.250291	-0.133024	0.238106	0.025916	0	0	-0.155521	-0.0137598	-0.0904143	-0.316694	-0.490134	0.219444	1.96454	0.238892	0	0	-0.253829	-0.232308	0.231212	0.578825	1.2122	0	0
4.51	-0.196191	1.53754	-1.50317	0.863319	-0.000445352	0.882013	-0.335886	-0.0872674	0.0228384	0.263939	0.30948	0	0	0.414221	-0.24462	-0.159218	0.243866	-0.00330838	0	0	-0.151181	-0.0174357	-0.104339	-0.342999	-0.50119	0.213713	1.9782	0.22529	0	0	-0.254502	-0.231899	0.224428	0.576714	1.21549	0	0
4.52	0.00951402	1.54207	-1.71812	0.867719	-0.00960502	0.881263	-0.307566	-0.108208	-0.00373153	0.325908	0.316341	0	0	0.404377	-0.239504	-0.155391	0.237249	-0.0280214	0	0	-0.143252	-0.0228819	-0.117137	-0.370127	-0.512529	0.206736	1.99038	0.206337	0	0	-0.256038	-0.231841	0.216021	0.57702	1.22199	0	0
4.53	0.426393	1.53976	-2.13964	0.873118	-0.0185544	0.881471	-0.288748	-0.134471	-0.0242035	0.374039	0.311433	0	0	0.41244	-0.219248	-0.19695	0.267634	-0.0366801	0	0	-0.139741	-0.0339941	-0.135001	-0.39663	-0.522514	0.198916	1.99935	0.193859	0	0	-0.255421	-0.232873	0.21022	0.577447	1.22566	0	0
4.54	0.674474	1.53867	-2.39138	0.87802	-0.0276547	0.88145	-0.268919	-0.154928	-0.0437478	0.418599	0.29886	0	0	0.424384	-0.211173	-0.212701	0.303389	-0.034578	0	0	-0.133556	-0.0396991	-0.152932	-0.425517	-0.531763	0.189547	2.00842	0.181393	0	0	-0.256671	-0.235299	0.205455	0.581032	1.22932	0	0
4.55	0.861983	1.536	-2.5815	0.883089	-0.036821	0.881923	-0.253897	-0.169673	-0.0468012	0.453449	0.274936	0	0	0.437388	-0.203872	-0.22135	0.342232	-0.0322954	0	0	-0.128353	-0.0442765	-0.171876	-0.454707	-0.540668	0.178895	2.01623	0.168938	0	0	-0.258383	-0.238169	0.201398	0.58698	1.23219	0	0
4.56	1.02062	1.53227	-2.74306	0.888019	-0.0460415	0.882739	-0.236567	-0.183651	-0.0471748	0.48991	0.244854	0	0	0.448811	-0.196735	-0.226816	0.378805	-0.0270276	0	0	-0.122912	-0.049098	-0.190168	-0.484734	-0.548966	0.166383	2.0225	0.151684	0	0	-0.260779	-0.24229	0.199087	0.595709	1.23446	0	0
4.57	1.13537	1.526	-2.86123	0.892888	-0.0552627	0.884025	-0.217998	-0.19884	-0.0463613	0.528571	0.211796	0	0	0.453226	-0.18675	-0.230471	0.405036	-0.0208709	0	0	-0.118347	-0.0556837	-0.207359	-0.515552	-0.554884	0.147164	2.02352	0.0833448	0	0	-0.263541	-0.250422	0.210311	0.609494	1.20806	0	0
4.58	1.22913	1.51915	-2.95805	0.897829	-0.064466	0.885534	-0.197517	-0.214372	-0.0470887	0.568011	0.174532	0	0	0.45342	-0.175273	-0.235351	0.422848	-0.0138083	0	0	-0.113247	-0.062212	-0.225066	-0.546457	-0.561231	0.13189	2.02766	0.0901901	0	0	-0.266416	-0.25772	0.215212	0.622849	1.19905	0	0
4.59	1.30346	1.51272	-3.03532	0.902835	-0.0736969	0.887208	-0.176461	-0.229762	-0.0501711	0.605978	0.132442	0	0	0.449416	-0.163538	-0.24255	0.432354	-0.00631896	0	0	-0.107839	-0.0673415	-0.241825	-0.57857	-0.566687	0.114031	2.0319	0.0978355	0	0	-0.268162	-0.264241	0.21974	0.634352	1.19485	0	0
4.6	1.34498	1.50706	-3.08264	0.90746	-0.0828134	0.889201	-0.155821	-0.244367	-0.0521097	0.641744	0.0874102	0	0	0.439158	-0.153525	-0.254329	0.433418	0.00170973	0	0	-0.103422	-0.0713246	-0.255407	-0.609871	-0.571894	0.0962927	2.03571	0.10923	0	0	-0.269371	-0.2706	0.22268	0.646419	1.18895	0	0
4.61	1.36855	1.50249	-3.11368	0.911794	-0.0917067	0.891425	-0.135875	-0.257538	-0.054794	0.675201	0.0421902	0	0	0.4247	-0.144878	-0.268883	0.428274	0.0103722	0	0	-0.0998024	-0.0741931	-0.266974	-0.639195	-0.576106	0.0748729	2.03425	0.0613984	0	0	-0.270353	-0.276909	0.221823	0.659771	1.19027	0	0
4.62	1.39302	1.4986	3.13649	0.915858	-0.100369	0.893717	-0.115796	-0.269456	-0.0583961	0.70714	0.00214901	0	0	0.409283	-0.13701	-0.283884	0.420987	0.0194685	0	0	-0.0957839	-0.0763705	-0.277714	-0.666257	-0.581136	0.0600715	2.03432	0.0773363	0	0	-0.270729	-0.282573	0.217425	0.671144	1.19356	0	0
4.63	1.40085	1.49434	3.11774	0.919584	-0.108829	0.896167	-0.096089	-0.280596	-0.0585738	0.738321	-0.0371002	0	0	0.391142	-0.128543	-0.299015	0.410925	0.0288114	0	0	-0.0929087	-0.0790877	-0.285589	-0.692909	-0.584493	0.0418559	2.03052	0.0695015	0	0	-0.270565	-0.290062	0.21897	0.68348	1.19378	0	0
4.64	1.39897	1.49041	3.10639	0.922941	-0.116884	0.898669	-0.0752183	-0.290014	-0.0553876	0.770125	-0.0741961	0	0	0.372493	-0.120545	-0.313461	0.400787	0.0374834	0	0	-0.0911109	-0.0817577	-0.290985	-0.717412	-0.587192	0.0243549	2.0254	0.0641068	0	0	-0.269468	-0.298428	0.221515	0.69511	1.19599	0	0
4.65	1.40879	1.48692	3.08294	0.925931	-0.124666	0.901305	-0.0528394	-0.297593	-0.0524129	0.801004	-0.108011	0	0	0.354925	-0.112177	-0.324763	0.38863	0.0433669	0	0	-0.0880891	-0.0867462	-0.297423	-0.72297	-0.616467	0.212395	1.97061	1.5708	0	0	-0.270951	-0.308011	0.222012	0.708803	1.20064	0	0
4.66	1.40195	1.48488	3.07751	0.928935	-0.132162	0.903777	-0.0326368	-0.303391	-0.0527775	0.830491	-0.134449	0	0	0.338202	-0.104853	-0.333417	0.378965	0.0491453	0	0	-0.08885	-0.0874738	-0.297994	-0.77774	-0.539432	0.102748	1.96253	1.5708	0	0	-0.264648	-0.320283	0.236356	0.720065	1.1861	0	0
4.67	1.38262	1.48637	3.08352	0.932659	-0.139485	0.906277	-0.0129646	-0.317377	-0.0557469	0.853323	-0.144333	0	0	0.322364	-0.0959006	-0.334502	0.37038	0.050206	0	0	-0.090575	-0.0831767	-0.302901	-0.796367	-0.540751	0.0904623	1.95527	1.5708	0	0	-0.261614	-0.328268	0.237958	0.730455	1.18244	0	0
4.68	1.37198	1.48816	3.08359	0.935309	-0.146374	0.90867	0.00404509	-0.31598	-0.0541457	0.874144	-0.143063	0	0	0.307338	-0.0920358	-0.338417	0.361232	0.0527474	0	0	-0.0916705	-0.0807223	-0.309603	-0.813471	-0.540851	0.0813354	1.94666	1.5708	0	0	-0.258491	-0.337156	0.235265	0.737573	1.18028	0	0
4.69	1.35716	1.49229	3.08754	0.937401	-0.152881	0.911078	0.0202514	-0.307242	-0.0475316	0.894183	-0.120013	0	0	0.292458	-0.0913677	-0.341447	0.352425	0.0548117	0	0	-0.0935462	-0.0764656	-0.315637	-0.828458	-0.539034	0.0718889	1.93664	1.5708	0	0	-0.25507	-0.34636	0.231632	0.742869	1.17793	0	0
4.7	1.34151	1.49662	3.0953	0.938402	-0.15903	0.913502	0.0342635	-0.282942	-0.0386175	0.916586	-0.090132	0	0	0.277145	-0.095595	-0.34819	0.343101	0.0595843	0	0	-0.0952689	-0.0741725	-0.323997	-0.842317	-0.535092	0.0628729	1.92477	1.5708	0	0	-0.252739	-0.356877	0.225753	0.746792	1.17244	0	0
4.71	1.29011	1.5036	3.13774	0.939937	-0.165483	0.916066	0.0464402	-0.267432	-0.0307842	0.934002	-0.0522484	0	0	0.260208	-0.0981996	-0.35029	0.334836	0.0622428	0	0	-0.0993679	-0.0675802	-0.332377	-0.854785	-0.531832	0.05505	1.91198	1.5708	0	0	-0.25181	-0.364992	0.21886	0.750579	1.16277	0	0
4.72	1.25392	1.51066	-3.11995	0.941233	-0.171486	0.918397	0.0614987	-0.251621	-0.0235529	0.949448	-0.0217902	0	0	0.24505	-0.101278	-0.352521	0.326064	0.0627288	0	0	-0.10211	-0.0613175	-0.339841	-0.864554	-0.530203	0.049896	1.89779	1.5708	0	0	-0.251779	-0.372613	0.210066	0.753517	1.1528	0	0
4.73	1.21232	1.51679	-3.0903	0.942394	-0.177117	0.920664	0.077103	-0.237307	-0.0182277	0.962404	-0.00302633	0	0	0.227967	-0.101972	-0.351071	0.311084	0.0574999	0	0	-0.10527	-0.0562068	-0.346158	-0.872498	-0.528344	0.045411	1.88253	1.5708	0	0	-0.251235	-0.379954	0.200763	0.754459	1.14346	0	0
4.74	1.1106	1.52516	-3.00284	0.943406	-0.182013	0.923884	0.0834464	-0.20013	0.0232167	0.960113	0.00890499	0	0	0.19601	-0.0956073	-0.321929	0.264316	0.0366916	0	0	-0.112451	-0.0485621	-0.350808	-0.874303	-0.526556	0.044043	1.86301	1.5708	0	0	-0.248071	-0.384348	0.184712	0.749054	1.15527	0	0
4.75	1.12576	1.53578	-3.02998	0.944363	-0.187119	0.924989	0.104149	-0.182338	0.0212835	0.971517	0.0196995	0	0	0.20451	-0.115966	-0.361332	0.298454	0.0534155	0	0	-0.111847	-0.0389797	-0.357017	-0.882911	-0.525932	0.0392188	1.84987	1.5708	0	0	-0.249998	-0.3912	0.173429	0.752837	1.1493	0	0
4.76	1.15436	1.54246	-3.071	0.944987	-0.191963	0.926324	0.124127	-0.168895	0.0178394	0.981725	0.0290414	0	0	0.198944	-0.122125	-0.373008	0.300086	0.0572024	0	0	-0.111989	-0.0346746	-0.363496	-0.889017	-0.523574	0.036113	1.83416	1.5708	0	0	-0.253511	-0.398628	0.160372	0.757128	1.13979	0	0
4.77	1.12322	1.54787	-3.05155	0.945515	-0.196759	0.927739	0.141049	-0.157071	0.0124883	0.990077	0.0394607	0	0	0.189462	-0.125389	-0.378309	0.296411	0.0577369	0	0	-0.11416	-0.031998	-0.370649	-0.894162	-0.520382	0.0331652	1.81791	1.5708	0	0	-0.258311	-0.40979	0.160447	0.766471	1.07439	0	0
4.78	1.06691	1.55368	-3.00687	0.945931	-0.20142	0.929049	0.15749	-0.145199	0.00599447	0.996558	0.0525931	0	0	0.180251	-0.12925	-0.382986	0.293262	0.0573981	0	0	-0.116457	-0.0289639	-0.378679	-0.897689	-0.518918	0.0324683	1.80189	1.5708	0	0	-0.263673	-0.416892	0.14763	0.770359	1.0579	0	0
4.79	0.949586	1.55965	-2.90179	0.946221	-0.205815	0.930247	0.173483	-0.133386	-0.0012532	1.00112	0.069123	0	0	0.171542	-0.133577	-0.387505	0.290828	0.0568793	0	0	-0.119079	-0.0257644	-0.386302	-0.900497	-0.517412	0.031984	1.78587	1.5708	0	0	-0.269568	-0.423576	0.134747	0.774209	1.0431	0	0
4.8	0.514345	1.5638	-2.47888	0.946467	-0.210086	0.931528	0.187217	-0.123365	-0.00958409	1.00361	0.0861978	0	0	0.159345	-0.134881	-0.385723	0.282164	0.0526662	0	0	-0.123399	-0.0233463	-0.393525	-0.90284	-0.514817	0.0293878	1.76904	1.5708	0	0	-0.275149	-0.429848	0.122199	0.777342	1.0313	0	0
4.81	-0.0812363	1.56297	-1.89599	0.946336	-0.21427	0.933187	0.198197	-0.116139	-0.019108	1.0032	0.0993034	0	0	0.131862	-0.122806	-0.354729	0.240306	0.0339344	0	0	-0.129014	-0.0243023	-0.400401	-0.903126	-0.511104	0.0283591	1.75003	1.5708	0	0	-0.28072	-0.436562	0.111403	0.778217	1.02385	0	0
4.82	-1.34102	1.56133	-0.645517	0.946606	-0.218458	0.93348	0.213654	-0.103322	-0.0359238	1.00276	0.109889	0	0	0.144422	-0.144627	-0.393824	0.281982	0.0555098	0	0	-0.129076	-0.0163758	-0.409407	-0.907454	-0.509982	0.0256235	1.73555	1.5708	0	0	-0.286654	-0.439657	0.0954221	0.778263	1.04032	0	0
4.83	-1.55766	1.55525	-0.440659	0.94641	-0.222429	0.934233	0.226046	-0.0942458	-0.0512468	1.00012	0.117697	0	0	0.138206	-0.151145	-0.404049	0.286682	0.0607079	0	0	-0.131837	-0.0132381	-0.415877	-0.910121	-0.507174	0.0244069	1.71864	1.5708	0	0	-0.292539	-0.445011	0.0870066	0.779373	1.03391	0	0
